<svg width="36" height="44" viewBox="0 0 36 44" fill="none" xmlns="http://www.w3.org/2000/svg">
<mask id="mask0_241_743" style="mask-type:luminance" maskUnits="userSpaceOnUse" x="0" y="0" width="36" height="44">
<path d="M36 0H0V44H36V0Z" fill="white"/>
</mask>
<g mask="url(#mask0_241_743)">
<path d="M24 0C26.2 0 28 1.8 28 4H30C33.3 4 36 6.7 36 10V38C36 41.3 33.3 44 30 44H6C2.7 44 0 41.3 0 38V10C0 6.7 2.7 4 6 4H8C8 1.8 9.8 0 12 0H24ZM8 8H6C4.9 8 4 8.9 4 10V38C4 39.1 4.9 40 6 40H30C31.1 40 32 39.1 32 38V10C32 8.9 31.1 8 30 8H28C28 10.2 26.2 12 24 12H12C9.8 12 8 10.2 8 8ZM13.2 19.7L15.4 21.9L11 26.2L15.3 30.5L13.1 32.7L8.8 28.4L6.6 26.2L8.8 24L13.2 19.7ZM22.8 19.7L27.1 24L29.3 26.2L27.1 28.4L22.8 32.7L20.6 30.5L24.9 26.2L20.6 21.9L22.8 19.7ZM24 4H12V8H24V4Z" fill="#FF9900"/>
</g>
</svg>
